<mxfile host="app.diagrams.net" modified="2022-07-05T06:38:11.542Z" agent="5.0 (Windows NT 10.0; Win64; x64) AppleWebKit/537.36 (KHTML, like Gecko) Chrome/103.0.0.0 Safari/537.36" etag="b3hadLli_mjV3FObDUyb" version="20.0.4" type="github">
  <diagram id="8CHKthuEcdSRa_-9Kitu" name="Page-1">
    <mxGraphModel dx="1422" dy="706" grid="1" gridSize="10" guides="1" tooltips="1" connect="1" arrows="1" fold="1" page="1" pageScale="1" pageWidth="1169" pageHeight="827" background="#F1FAEE" math="0" shadow="0">
      <root>
        <mxCell id="0" />
        <mxCell id="1" parent="0" />
        <mxCell id="5UeFiIaZfcydKPwHOv1l-1" value="主分支 master" style="ellipse;whiteSpace=wrap;html=1;" parent="1" vertex="1">
          <mxGeometry x="120" y="320" width="120" height="80" as="geometry" />
        </mxCell>
        <mxCell id="5UeFiIaZfcydKPwHOv1l-2" value="分支 colleges" style="rounded=0;whiteSpace=wrap;html=1;" parent="1" vertex="1">
          <mxGeometry x="320" y="200" width="120" height="80" as="geometry" />
        </mxCell>
        <mxCell id="5UeFiIaZfcydKPwHOv1l-3" value="分支&amp;nbsp;forces" style="rounded=0;whiteSpace=wrap;html=1;" parent="1" vertex="1">
          <mxGeometry x="320" y="440" width="120" height="80" as="geometry" />
        </mxCell>
        <mxCell id="5UeFiIaZfcydKPwHOv1l-4" value="" style="endArrow=classic;html=1;rounded=0;entryX=0;entryY=0.5;entryDx=0;entryDy=0;" parent="1" target="5UeFiIaZfcydKPwHOv1l-2" edge="1">
          <mxGeometry width="50" height="50" relative="1" as="geometry">
            <mxPoint x="240" y="360" as="sourcePoint" />
            <mxPoint x="610" y="370" as="targetPoint" />
          </mxGeometry>
        </mxCell>
        <mxCell id="5UeFiIaZfcydKPwHOv1l-5" value="" style="endArrow=classic;html=1;rounded=0;exitX=1;exitY=0.5;exitDx=0;exitDy=0;entryX=0;entryY=0.5;entryDx=0;entryDy=0;" parent="1" source="5UeFiIaZfcydKPwHOv1l-1" target="5UeFiIaZfcydKPwHOv1l-3" edge="1">
          <mxGeometry width="50" height="50" relative="1" as="geometry">
            <mxPoint x="560" y="420" as="sourcePoint" />
            <mxPoint x="610" y="370" as="targetPoint" />
          </mxGeometry>
        </mxCell>
        <mxCell id="5UeFiIaZfcydKPwHOv1l-7" value="继续开发测试" style="rhombus;whiteSpace=wrap;html=1;" parent="1" vertex="1">
          <mxGeometry x="520" y="200" width="120" height="80" as="geometry" />
        </mxCell>
        <mxCell id="5UeFiIaZfcydKPwHOv1l-8" value="" style="endArrow=classic;html=1;rounded=0;exitX=1;exitY=0.5;exitDx=0;exitDy=0;entryX=0;entryY=0.5;entryDx=0;entryDy=0;" parent="1" source="5UeFiIaZfcydKPwHOv1l-2" target="5UeFiIaZfcydKPwHOv1l-7" edge="1">
          <mxGeometry width="50" height="50" relative="1" as="geometry">
            <mxPoint x="560" y="420" as="sourcePoint" />
            <mxPoint x="610" y="370" as="targetPoint" />
          </mxGeometry>
        </mxCell>
        <mxCell id="5UeFiIaZfcydKPwHOv1l-9" value="继续开发测试&lt;br&gt;（要求测试全部功能）" style="rhombus;whiteSpace=wrap;html=1;" parent="1" vertex="1">
          <mxGeometry x="520" y="440" width="240" height="80" as="geometry" />
        </mxCell>
        <mxCell id="5UeFiIaZfcydKPwHOv1l-10" value="" style="endArrow=classic;html=1;rounded=0;exitX=1;exitY=0.5;exitDx=0;exitDy=0;" parent="1" source="5UeFiIaZfcydKPwHOv1l-3" target="5UeFiIaZfcydKPwHOv1l-9" edge="1">
          <mxGeometry width="50" height="50" relative="1" as="geometry">
            <mxPoint x="450" y="290" as="sourcePoint" />
            <mxPoint x="530" y="290" as="targetPoint" />
          </mxGeometry>
        </mxCell>
        <mxCell id="5UeFiIaZfcydKPwHOv1l-11" value="测试完成" style="rhombus;whiteSpace=wrap;html=1;" parent="1" vertex="1">
          <mxGeometry x="720" y="200" width="120" height="80" as="geometry" />
        </mxCell>
        <mxCell id="5UeFiIaZfcydKPwHOv1l-12" value="" style="endArrow=classic;html=1;rounded=0;entryX=0;entryY=0.5;entryDx=0;entryDy=0;exitX=1;exitY=0.5;exitDx=0;exitDy=0;" parent="1" source="5UeFiIaZfcydKPwHOv1l-7" target="5UeFiIaZfcydKPwHOv1l-11" edge="1">
          <mxGeometry width="50" height="50" relative="1" as="geometry">
            <mxPoint x="560" y="420" as="sourcePoint" />
            <mxPoint x="610" y="370" as="targetPoint" />
          </mxGeometry>
        </mxCell>
        <mxCell id="-Dnle62x9Xf2UopOrs5c-6" value="" style="edgeStyle=orthogonalEdgeStyle;rounded=0;orthogonalLoop=1;jettySize=auto;html=1;" parent="1" source="-Dnle62x9Xf2UopOrs5c-1" target="-Dnle62x9Xf2UopOrs5c-5" edge="1">
          <mxGeometry relative="1" as="geometry" />
        </mxCell>
        <mxCell id="-Dnle62x9Xf2UopOrs5c-1" value="分支 common&lt;br&gt;dictionary-level" style="ellipse;whiteSpace=wrap;html=1;" parent="1" vertex="1">
          <mxGeometry x="400" y="320" width="120" height="80" as="geometry" />
        </mxCell>
        <mxCell id="-Dnle62x9Xf2UopOrs5c-2" value="" style="endArrow=classic;html=1;rounded=0;entryX=0;entryY=0.5;entryDx=0;entryDy=0;" parent="1" target="-Dnle62x9Xf2UopOrs5c-1" edge="1">
          <mxGeometry width="50" height="50" relative="1" as="geometry">
            <mxPoint x="240" y="360" as="sourcePoint" />
            <mxPoint x="310" y="350" as="targetPoint" />
          </mxGeometry>
        </mxCell>
        <mxCell id="-Dnle62x9Xf2UopOrs5c-5" value="开发测试完成" style="rhombus;whiteSpace=wrap;html=1;" parent="1" vertex="1">
          <mxGeometry x="640" y="320" width="120" height="80" as="geometry" />
        </mxCell>
        <mxCell id="QeNawC7K-dovTDgexIZl-4" value="上线" style="ellipse;whiteSpace=wrap;html=1;" parent="1" vertex="1">
          <mxGeometry x="920" y="200" width="120" height="80" as="geometry" />
        </mxCell>
        <mxCell id="QeNawC7K-dovTDgexIZl-5" value="" style="endArrow=classic;html=1;rounded=0;strokeColor=#000000;exitX=1;exitY=0.5;exitDx=0;exitDy=0;entryX=0;entryY=0.5;entryDx=0;entryDy=0;" parent="1" source="5UeFiIaZfcydKPwHOv1l-11" target="QeNawC7K-dovTDgexIZl-4" edge="1">
          <mxGeometry width="50" height="50" relative="1" as="geometry">
            <mxPoint x="850" y="270" as="sourcePoint" />
            <mxPoint x="900" y="220" as="targetPoint" />
          </mxGeometry>
        </mxCell>
        <mxCell id="QeNawC7K-dovTDgexIZl-7" value="" style="endArrow=classic;html=1;rounded=0;strokeColor=#000000;entryX=0;entryY=0.5;entryDx=0;entryDy=0;startArrow=none;" parent="1" source="QeNawC7K-dovTDgexIZl-8" edge="1">
          <mxGeometry width="50" height="50" relative="1" as="geometry">
            <mxPoint x="760" y="480" as="sourcePoint" />
            <mxPoint x="880" y="480" as="targetPoint" />
          </mxGeometry>
        </mxCell>
        <mxCell id="QeNawC7K-dovTDgexIZl-8" value="继续开发测试" style="rhombus;whiteSpace=wrap;html=1;" parent="1" vertex="1">
          <mxGeometry x="840" y="440" width="120" height="80" as="geometry" />
        </mxCell>
        <mxCell id="QeNawC7K-dovTDgexIZl-10" value="" style="endArrow=classic;html=1;rounded=0;strokeColor=#000000;exitX=1;exitY=0.5;exitDx=0;exitDy=0;entryX=0;entryY=0.5;entryDx=0;entryDy=0;" parent="1" source="5UeFiIaZfcydKPwHOv1l-9" target="QeNawC7K-dovTDgexIZl-8" edge="1">
          <mxGeometry width="50" height="50" relative="1" as="geometry">
            <mxPoint x="760" y="520" as="sourcePoint" />
            <mxPoint x="810" y="470" as="targetPoint" />
          </mxGeometry>
        </mxCell>
      </root>
    </mxGraphModel>
  </diagram>
</mxfile>
